<svg xmlns="http://www.w3.org/2000/svg" viewBox="0 0 520 150" role="img" aria-labelledby="title desc">
  <title id="title">ReturnGuard</title>
  <desc id="desc">ReturnGuard shield and package logo</desc>
  <defs>
    <linearGradient id="shield" x1="0" y1="0" x2="1" y2="1">
      <stop offset="0" stop-color="#0f5bea"/>
      <stop offset="1" stop-color="#18327a"/>
    </linearGradient>
    <linearGradient id="box" x1="0" y1="0" x2="1" y2="1">
      <stop offset="0" stop-color="#ffd16a"/>
      <stop offset="1" stop-color="#b56a08"/>
    </linearGradient>
  </defs>
  <path fill="url(#shield)" d="M72 8 130 29v44c0 34-24 57-58 69C38 130 14 107 14 73V29L72 8Z"/>
  <path fill="#fff" d="M72 22 30 37v35c0 25 17 43 42 54 25-11 42-29 42-54V37L72 22Zm0 14 28 10v26c0 18-11 31-28 40-17-9-28-22-28-40V46l28-10Z"/>
  <path fill="#0f5bea" d="m38 63 24-20v12h32v16H62v12L38 63Z"/>
  <path fill="url(#box)" d="m48 62 27-12 28 13-27 13-28-14Z"/>
  <path fill="#e49b2e" d="M48 62v29l28 15V76L48 62Z"/>
  <path fill="#b56a08" d="m76 76 27-13v28l-27 15V76Z"/>
  <path fill="#fff" d="M70 84h14v16H70z" opacity=".92"/>
  <text x="152" y="91" fill="#13245a" font-family="Arial, sans-serif" font-size="55" font-weight="700" letter-spacing="-2">Return</text>
  <text x="337" y="91" fill="#1260df" font-family="Arial, sans-serif" font-size="55" font-weight="700" letter-spacing="-2">Guard</text>
  <path fill="#1260df" d="M154 113h72v4h-72zm228 0h72v4h-72z"/>
  <circle cx="360" cy="115" r="4" fill="#1260df"/>
</svg>